<svg xmlns="http://www.w3.org/2000/svg" viewBox="0 0 2000 2000">
  <circle cx="1000" cy="1000" r="1000" fill="#fff"/>
  <path d="M613 1000v800h243l2-8 12-46 6-24 7-25 7-25 6-24 7-25 5-20 4-15 5-20 5-17a3921 3921 0 0 0 39-147 11156 11156 0 0 0 26-97c0-4 2-11 4-15 6-27 8-34 9-34 1-2 1-2 4 10l15 58 17 65 7 26 8 29 8 30 13 51a1437 1437 0 0 0 11 41l10 40 11 42 16 61 22 83 1 6h244V200h-244l-1 6-22 84-16 61-11 41-10 40a2066 2066 0 0 1-11 41l-13 51-8 31-8 28a13803 13803 0 0 0-39 149c-3 12-3 12-4 10a273 273 0 0 1-13-48l-6-21a11156 11156 0 0 0-39-148l-8-29-12-47-5-17-5-19-4-15-5-21-7-24-6-24a3801 3801 0 0 0-14-50l-6-24-12-47-2-8H613v800zm155-619a2061 2061 0 0 0 27 109l65 262 62 248-62 248-65 262a36738 36738 0 0 1-29 112c-1 1-2-175-2-622a30356 30356 0 0 1 4-619zm467 619-1 622-24-92a45257 45257 0 0 1-110-441l-15-56-8-33 9-33 14-56 6-26a40898 40898 0 0 1 128-507l1 622z"/>
</svg>
